<svg width="120" height="32" viewBox="0 0 120 32" fill="none" xmlns="http://www.w3.org/2000/svg">
<path d="M32.7271 31.4623V0H37.6502V31.4623H32.7271Z" fill="#3103EB"/>
<path d="M75.3748 27.3279C76.1394 27.3279 77.3702 27.2352 77.855 27.1425V31.4623C77.0905 31.5921 75.6359 31.7404 74.2 31.7404C71.8131 31.7404 67.3749 31.4253 67.3749 24.3615V14.6095H63.8131V10.5122H67.3749V4.1715H72.2979V10.5122H77.1277V14.6095H72.2979V23.2306C72.2979 26.8644 73.4168 27.3279 75.3748 27.3279Z" fill="#3103EB"/>
<path d="M111.478 32C106.051 32 102.527 28.8482 102.527 25.029H107.45C107.45 26.8273 109.221 28.0881 111.739 28.0881C113.585 28.0881 114.76 27.1054 114.76 25.6222C114.76 24.6767 114.405 23.7312 113.175 23.416L107.748 21.9328C104.634 21.0799 103.179 18.9293 103.179 16.1298C103.179 12.7184 106.387 9.9745 111.272 9.9745C116.792 9.9745 119.589 12.7555 119.589 16.482H114.76C114.76 14.7207 113.398 13.701 111.105 13.701C109.389 13.701 108.084 14.5539 108.084 15.8517C108.084 17.0197 108.811 17.7798 109.893 18.095L114.909 19.5411C117.762 20.3569 119.795 22.4704 119.795 25.1587C119.795 29.1634 116.848 32 111.478 32Z" fill="#3103EB"/>
<path d="M19.0582 0H7.40324V17.3905H0V22.0255H7.40324V31.4623H12.606V22.0255H19.0582C25.3799 22.0255 29.9113 17.4461 29.9113 11.0127C29.9113 4.57937 25.3799 0 19.0582 0ZM18.7412 17.3905H12.5874V4.635H18.7412C22.1724 4.635 24.7085 7.32329 24.7085 11.0127C24.7085 14.7022 22.1724 17.3905 18.7412 17.3905Z" fill="#3103EB"/>
<path d="M56.1495 10.5122V22.8969C56.1495 25.9745 54.6763 27.4392 51.5248 27.4392C48.3733 27.4392 46.8068 25.9745 46.8068 22.8969V10.5122H41.8465V22.6373C41.8465 28.9594 45.0726 32 51.5807 32C58.0888 32 61.1098 28.9594 61.1098 22.6373V10.5122H56.1495Z" fill="#3103EB"/>
<path d="M94.8622 10.5122V22.8969C94.8622 25.9745 93.389 27.4392 90.2375 27.4392C87.086 27.4392 85.5195 25.9745 85.5195 22.8969V10.5122H80.5592V22.6373C80.5592 28.9594 83.7853 32 90.2934 32C96.8015 32 99.8225 28.9594 99.8225 22.6373V10.5122H94.8622Z" fill="#3103EB"/>
</svg>
